<svg width="146" height="50" viewBox="0 0 146 50" fill="none" xmlns="http://www.w3.org/2000/svg">
<path d="M3 38L56.5 38V41V43L53 41H0L3 38Z" fill="url(#paint0_linear_5_51)"/>
<path d="M3.346 36L3.38 11.52H7.528V26.48L14.243 17.64H19.36L12.237 26.82L19.972 36H14.549L7.528 27.16V36H3.346ZM28.4319 36.51C26.1652 36.51 24.3236 36 22.9069 34.98C21.4902 33.96 20.6289 32.5263 20.3229 30.679L24.5049 30.033C24.7202 30.9397 25.1962 31.6537 25.9329 32.175C26.6696 32.6963 27.5989 32.957 28.7209 32.957C29.7069 32.957 30.4662 32.7643 30.9989 32.379C31.5429 31.9823 31.8149 31.444 31.8149 30.764C31.8149 30.3447 31.7129 30.0103 31.5089 29.761C31.3162 29.5003 30.8856 29.251 30.2169 29.013C29.5482 28.775 28.5226 28.4747 27.1399 28.112C25.5986 27.704 24.3746 27.2677 23.4679 26.803C22.5612 26.327 21.9096 25.766 21.5129 25.12C21.1162 24.474 20.9179 23.692 20.9179 22.774C20.9179 21.6293 21.2182 20.632 21.8189 19.782C22.4196 18.932 23.2582 18.2803 24.3349 17.827C25.4116 17.3623 26.6809 17.13 28.1429 17.13C29.5709 17.13 30.8346 17.351 31.9339 17.793C33.0446 18.235 33.9399 18.864 34.6199 19.68C35.2999 20.496 35.7192 21.4537 35.8779 22.553L31.6959 23.301C31.5939 22.519 31.2369 21.9013 30.6249 21.448C30.0242 20.9947 29.2196 20.7397 28.2109 20.683C27.2476 20.6263 26.4712 20.7737 25.8819 21.125C25.2926 21.465 24.9979 21.9467 24.9979 22.57C24.9979 22.9213 25.1169 23.2217 25.3549 23.471C25.5929 23.7203 26.0689 23.9697 26.7829 24.219C27.5082 24.4683 28.5849 24.7743 30.0129 25.137C31.4749 25.511 32.6422 25.9417 33.5149 26.429C34.3989 26.905 35.0336 27.4773 35.4189 28.146C35.8156 28.8147 36.0139 29.625 36.0139 30.577C36.0139 32.4243 35.3396 33.875 33.9909 34.929C32.6536 35.983 30.8006 36.51 28.4319 36.51ZM39.7034 36L39.7374 11.52H43.8854V26.48L50.6004 17.64H55.7174L48.5944 26.82L56.3294 36H50.9064L43.8854 27.16V36H39.7034Z" fill="white"/>
<path d="M126.586 18.9999C127.25 18.9999 127.788 18.4617 127.788 17.7978C127.788 17.1339 127.25 16.5957 126.586 16.5957C125.922 16.5957 125.384 17.1339 125.384 17.7978C125.384 18.4617 125.922 18.9999 126.586 18.9999Z" fill="url(#paint1_linear_5_51)"/>
<path d="M126.228 19.0733C126.136 20.4685 126.164 20.4934 125.987 22.1682C125.941 22.6001 125.896 23.0545 125.856 23.6074C125.816 24.1602 125.715 24.7963 125.468 25.6368C125.249 26.3842 124.84 26.7743 124.469 27.1518C124.099 27.5293 123.775 27.8897 123.122 28.278C121.893 29.0094 119.884 29.2786 118.676 29.1418C115.964 28.8345 113.966 27.9876 112.463 26.3177C110.96 24.6479 110.022 22.0372 109.964 18.5564C109.936 16.885 110.019 15.6042 110.192 14.4932C110.366 13.3822 110.787 12.4552 111.449 11.477C112.748 9.55936 115.305 8.19327 117.626 8.19327C122.268 8.19327 126.604 13.3623 126.228 19.0733Z" fill="url(#paint2_linear_5_51)" stroke="url(#paint3_linear_5_51)" stroke-width="1.5"/>
<path d="M122.084 39.8371C122.057 40.4081 122.008 40.4262 121.859 40.6246C121.71 40.8229 121.439 40.7102 121.091 40.6506C120.379 40.5285 119.446 40.0657 118.756 40.2081C118.061 40.2292 115.565 42.5662 115.565 42.5662C115.565 42.5662 115.269 42.3732 114.924 41.9606C114.034 40.8954 114.378 41.265 113.801 40.2379C113.189 39.1486 112.856 37.4559 113.182 35.1017C113.343 33.9336 113.51 32.5485 113.698 30.978C113.886 29.4114 114.046 27.6612 114.046 27.6612C114.046 27.6612 114.982 28.2704 116.107 28.6168C116.415 28.7117 116.769 28.8031 117.17 28.8893C117.586 28.9787 117.991 29.0668 118.385 29.1159C118.619 29.145 119.473 29.2224 120.189 29.14C120.543 29.0991 121.439 28.9431 121.439 28.9431C121.439 28.9431 121.525 29.4306 121.553 29.5857C121.58 29.7408 121.655 30.8961 121.655 30.8961C121.655 30.8961 121.174 29.7771 120.559 29.4603C119.944 29.1434 119.196 29.6287 119.046 29.8168C118.448 30.5691 119.215 32.3588 119.311 32.7018C119.695 34.074 120.593 36.1408 120.593 36.1408C120.946 36.8496 121.243 37.4117 121.503 38.0114C121.985 39.123 122.119 39.0737 122.084 39.8371Z" fill="url(#paint4_linear_5_51)" stroke="url(#paint5_linear_5_51)"/>
<path d="M124.568 41.1779C124.187 41.2338 123.781 41.3322 123.232 40.9717C122.63 40.5756 122.103 39.2629 121.509 38.0055C120.916 36.7481 120.255 35.546 119.927 34.571C119.204 32.4196 118.683 31.2153 118.812 30.5118C118.88 30.1392 118.899 29.9949 118.989 29.8901C119.041 29.83 119.072 29.779 119.154 29.7156C119.248 29.6431 119.275 29.6304 119.333 29.5923C119.391 29.5543 119.481 29.4909 119.629 29.4458C119.985 29.3376 120.23 29.3237 120.48 29.4321C120.73 29.5404 120.984 29.7708 121.298 30.2724C121.925 31.2756 122.869 33.2722 122.869 33.2722C122.869 33.2722 123.456 34.3697 124.107 35.5878C124.757 36.8059 125.553 38.1548 125.687 38.88C125.821 39.6052 125.652 40.2174 125.412 40.5982C125.172 40.979 124.954 41.1213 124.568 41.1779Z" fill="url(#paint6_linear_5_51)" stroke="url(#paint7_linear_5_51)"/>
<path d="M112.783 33.2784C112.232 33.88 112.069 33.8441 111.424 33.8037C110.856 33.7681 110.348 32.9652 110.217 32.4703C110.18 32.3323 110.171 31.9062 110.224 31.7036C110.361 31.1771 110.408 31.1786 110.582 30.9689C110.95 30.524 111.251 30.2588 111.464 30.0711C111.688 29.8747 114.046 27.6612 114.046 27.6612L113.503 32.5468C113.503 32.5468 113.022 33.0173 112.783 33.2784Z" fill="url(#paint8_linear_5_51)" stroke="url(#paint9_linear_5_51)" stroke-width="0.999999"/>
<path d="M113.486 39.5475C113.693 40.0508 113.93 40.5047 113.93 40.5047C111.06 40.7701 108.201 41.0441 105.327 41.2736C105.327 41.2736 104.565 40.9584 104.176 40.3588C103.787 39.7593 103.772 38.8754 103.772 38.6271C103.772 38.3789 103.971 37.537 104.376 36.9845C104.782 36.4319 105.395 36.1688 105.395 36.1688C107.961 36.2117 110.507 36.2439 113.074 36.2698C113.074 36.2698 113.042 36.6372 113.049 37.0567C113.056 37.9116 113.205 38.8275 113.486 39.5475Z" fill="url(#paint10_linear_5_51)" stroke="url(#paint11_linear_5_51)" stroke-width="0.999999"/>
<path d="M122.053 40.2672C122.053 40.2672 122.288 40.9865 122.273 41.3425C122.258 41.6986 121.913 42.3822 121.913 42.3822L117.566 49.0185C117.566 49.0185 116.585 49.4466 116.018 49.4628C115.49 49.4778 115.498 49.4469 114.93 49.2136C113.793 48.747 113.02 47.152 113.02 46.3966C113.02 46.0189 113.126 45.3114 113.34 44.8341C113.554 44.3567 113.874 44.1095 113.874 44.1095L116.932 41.3612C116.932 41.3612 117.496 40.8741 117.972 40.5798C118.447 40.2856 118.834 40.1842 118.964 40.1842C119.482 40.1842 120.147 40.4132 120.78 40.5721C121.03 40.6352 121.472 40.7929 121.737 40.7062C122.001 40.6196 122.053 40.2672 122.053 40.2672Z" fill="url(#paint12_linear_5_51)" stroke="url(#paint13_linear_5_51)" stroke-width="0.999999"/>
<path d="M133.486 11.1207C134.613 11.1207 135.526 10.2071 135.526 9.08018C135.526 7.95324 134.613 7.03967 133.486 7.03967C132.359 7.03967 131.445 7.95324 131.445 9.08018C131.445 10.2071 132.359 11.1207 133.486 11.1207Z" fill="url(#paint14_linear_5_51)"/>
<path d="M127.95 12.5551C129.077 12.5551 129.991 11.6415 129.991 10.5146C129.991 9.38763 129.077 8.47406 127.95 8.47406C126.823 8.47406 125.91 9.38763 125.91 10.5146C125.91 11.6415 126.823 12.5551 127.95 12.5551Z" fill="url(#paint15_linear_5_51)"/>
<path d="M142.395 15.0805C143.422 15.0805 144.254 14.2483 144.254 13.2218C144.254 12.1953 143.422 11.3631 142.395 11.3631C141.369 11.3631 140.536 12.1953 140.536 13.2218C140.536 14.2483 141.369 15.0805 142.395 15.0805Z" fill="url(#paint16_linear_5_51)"/>
<path d="M143.84 18.515C144.827 18.515 145.628 17.7145 145.628 16.727C145.628 15.7396 144.827 14.9391 143.84 14.9391C142.852 14.9391 142.052 15.7396 142.052 16.727C142.052 17.7145 142.852 18.515 143.84 18.515Z" fill="url(#paint17_linear_5_51)"/>
<path d="M144.183 22.0303C145.115 22.0303 145.87 21.275 145.87 20.3434C145.87 19.4117 145.115 18.6564 144.183 18.6564C143.252 18.6564 142.496 19.4117 142.496 20.3434C142.496 21.275 143.252 22.0303 144.183 22.0303Z" fill="url(#paint18_linear_5_51)"/>
<path d="M141.627 27.607C142.219 27.607 142.699 27.1273 142.699 26.5356C142.699 25.9439 142.219 25.4643 141.627 25.4643C141.036 25.4643 140.556 25.9439 140.556 26.5356C140.556 27.1273 141.036 27.607 141.627 27.607Z" fill="url(#paint19_linear_5_51)"/>
<path d="M139.368 28.1273C139.981 28.1273 140.479 27.6304 140.479 27.0173C140.479 26.4043 139.981 25.9073 139.368 25.9073C138.755 25.9073 138.258 26.4043 138.258 27.0173C138.258 27.6304 138.755 28.1273 139.368 28.1273Z" fill="url(#paint20_linear_5_51)"/>
<path d="M132.9 25.1012C133.58 25.1012 134.132 24.5494 134.132 23.8688C134.132 23.1882 133.58 22.6364 132.9 22.6364C132.219 22.6364 131.667 23.1882 131.667 23.8688C131.667 24.5494 132.219 25.1012 132.9 25.1012Z" fill="url(#paint21_linear_5_51)"/>
<path d="M129.9 22.293C130.563 22.293 131.102 21.7548 131.102 21.0909C131.102 20.427 130.563 19.8888 129.9 19.8888C129.236 19.8888 128.697 20.427 128.697 21.0909C128.697 21.7548 129.236 22.293 129.9 22.293Z" fill="url(#paint22_linear_5_51)"/>
<path d="M112.161 23.2718C113.289 23.2718 114.204 22.3572 114.204 21.229C114.204 20.1008 113.289 19.1862 112.161 19.1862C111.033 19.1862 110.118 20.1008 110.118 21.229C110.118 22.3572 111.033 23.2718 112.161 23.2718Z" fill="url(#paint23_linear_5_51)"/>
<path d="M106.318 28.5575C107.438 28.5575 108.347 27.6493 108.347 26.529C108.347 25.4087 107.438 24.5005 106.318 24.5005C105.198 24.5005 104.29 25.4087 104.29 26.529C104.29 27.6493 105.198 28.5575 106.318 28.5575Z" fill="url(#paint24_linear_5_51)"/>
<path d="M101.275 33.0575C102.372 33.0575 103.261 32.1685 103.261 31.0719C103.261 29.9752 102.372 29.0862 101.275 29.0862C100.178 29.0862 99.2895 29.9752 99.2895 31.0719C99.2895 32.1685 100.178 33.0575 101.275 33.0575Z" fill="url(#paint25_linear_5_51)"/>
<path d="M95.7038 37.0718C96.7452 37.0718 97.5894 36.2276 97.5894 35.1862C97.5894 34.1448 96.7452 33.3005 95.7038 33.3005C94.6623 33.3005 93.8181 34.1448 93.8181 35.1862C93.8181 36.2276 94.6623 37.0718 95.7038 37.0718Z" fill="url(#paint26_linear_5_51)"/>
<path d="M93.3537 37.5004C94.3518 37.5004 95.1608 36.6913 95.1608 35.6933C95.1608 34.6953 94.3518 33.8862 93.3537 33.8862C92.3557 33.8862 91.5467 34.6953 91.5467 35.6933C91.5467 36.6913 92.3557 37.5004 93.3537 37.5004Z" fill="url(#paint27_linear_5_51)"/>
<path d="M92.0895 36.0861C93.0283 36.0861 93.7894 35.325 93.7894 34.3862C93.7894 33.4473 93.0283 32.6862 92.0895 32.6862C91.1506 32.6862 90.3895 33.4473 90.3895 34.3862C90.3895 35.325 91.1506 36.0861 92.0895 36.0861Z" fill="url(#paint28_linear_5_51)"/>
<path d="M92.7323 26.7147C93.5449 26.7147 94.2037 26.0559 94.2037 25.2433C94.2037 24.4307 93.5449 23.7719 92.7323 23.7719C91.9197 23.7719 91.261 24.4307 91.261 25.2433C91.261 26.0559 91.9197 26.7147 92.7323 26.7147Z" fill="url(#paint29_linear_5_51)"/>
<path d="M94.2466 21.9718C95.0276 21.9718 95.6608 21.3387 95.6608 20.5576C95.6608 19.7766 95.0276 19.1434 94.2466 19.1434C93.4655 19.1434 92.8324 19.7766 92.8324 20.5576C92.8324 21.3387 93.4655 21.9718 94.2466 21.9718Z" fill="url(#paint30_linear_5_51)"/>
<path d="M100.182 11.3718C100.888 11.3718 101.461 10.7994 101.461 10.0933C101.461 9.38722 100.888 8.81482 100.182 8.81482C99.4762 8.81482 98.9038 9.38722 98.9038 10.0933C98.9038 10.7994 99.4762 11.3718 100.182 11.3718Z" fill="url(#paint31_linear_5_51)"/>
<path d="M103.061 8.68608C103.763 8.68608 104.332 8.11688 104.332 7.41473C104.332 6.71258 103.763 6.14337 103.061 6.14337C102.359 6.14337 101.79 6.71258 101.79 7.41473C101.79 8.11688 102.359 8.68608 103.061 8.68608Z" fill="url(#paint32_linear_5_51)"/>
<path d="M106.268 7.12894C106.951 7.12894 107.504 6.57572 107.504 5.8933C107.504 5.21087 106.951 4.65765 106.268 4.65765C105.586 4.65765 105.032 5.21087 105.032 5.8933C105.032 6.57572 105.586 7.12894 106.268 7.12894Z" fill="url(#paint33_linear_5_51)"/>
<path d="M114.804 8.35753C115.403 8.35753 115.889 7.87148 115.889 7.27189C115.889 6.67231 115.403 6.18625 114.804 6.18625C114.204 6.18625 113.718 6.67231 113.718 7.27189C113.718 7.87148 114.204 8.35753 114.804 8.35753Z" fill="url(#paint34_linear_5_51)"/>
<path d="M109.565 6.67601C110.168 6.67601 110.656 6.18757 110.656 5.58504C110.656 4.98252 110.168 4.49408 109.565 4.49408C108.963 4.49408 108.474 4.98252 108.474 5.58504C108.474 6.18757 108.963 6.67601 109.565 6.67601Z" fill="url(#paint35_linear_5_51)"/>
<path d="M112.486 7.27229C113.043 7.27229 113.496 6.82003 113.496 6.26214C113.496 5.70424 113.043 5.25198 112.486 5.25198C111.928 5.25198 111.475 5.70424 111.475 6.26214C111.475 6.82003 111.928 7.27229 112.486 7.27229Z" fill="url(#paint36_linear_5_51)"/>
<path d="M138.93 11.7764C140.101 11.7764 141.051 10.827 141.051 9.65595C141.051 8.48487 140.101 7.53552 138.93 7.53552C137.759 7.53552 136.81 8.48487 136.81 9.65595C136.81 10.827 137.759 11.7764 138.93 11.7764Z" fill="url(#paint37_linear_5_51)"/>
<path d="M143.884 23.9603C144.665 23.9603 145.298 23.3271 145.298 22.5461C145.298 21.765 144.665 21.1319 143.884 21.1319C143.103 21.1319 142.47 21.765 142.47 22.5461C142.47 23.3271 143.103 23.9603 143.884 23.9603Z" fill="url(#paint38_linear_5_51)"/>
<path d="M143.143 26.0911C143.879 26.0911 144.476 25.4942 144.476 24.7577C144.476 24.0213 143.879 23.4243 143.143 23.4243C142.406 23.4243 141.809 24.0213 141.809 24.7577C141.809 25.4942 142.406 26.0911 143.143 26.0911Z" fill="url(#paint39_linear_5_51)"/>
<path d="M135.789 27.0205C136.38 27.0205 136.86 26.5411 136.86 25.9497C136.86 25.3584 136.38 24.879 135.789 24.879C135.197 24.879 134.718 25.3584 134.718 25.9497C134.718 26.5411 135.197 27.0205 135.789 27.0205Z" fill="url(#paint40_linear_5_51)"/>
<path d="M121.717 15.5249C122.649 15.5249 123.404 14.7697 123.404 13.838C123.404 12.9063 122.649 12.151 121.717 12.151C120.786 12.151 120.03 12.9063 120.03 13.838C120.03 14.7697 120.786 15.5249 121.717 15.5249Z" fill="url(#paint41_linear_5_51)"/>
<path d="M116.99 19.3214C117.933 19.3214 118.698 18.5571 118.698 17.6143C118.698 16.6714 117.933 15.9071 116.99 15.9071C116.047 15.9071 115.283 16.6714 115.283 17.6143C115.283 18.5571 116.047 19.3214 116.99 19.3214Z" fill="url(#paint42_linear_5_51)"/>
<path d="M98.0697 35.2835C98.94 35.2835 99.6455 34.578 99.6455 33.7077C99.6455 32.8374 98.94 32.1319 98.0697 32.1319C97.1994 32.1319 96.4939 32.8374 96.4939 33.7077C96.4939 34.578 97.1994 35.2835 98.0697 35.2835Z" fill="url(#paint43_linear_5_51)"/>
<path d="M91.7057 33.041C92.576 33.041 93.2816 32.3355 93.2816 31.4652C93.2816 30.5949 92.576 29.8893 91.7057 29.8893C90.8354 29.8893 90.1299 30.5949 90.1299 31.4652C90.1299 32.3355 90.8354 33.041 91.7057 33.041Z" fill="url(#paint44_linear_5_51)"/>
<path d="M92.0088 29.9903C92.9126 29.9903 93.6452 29.2577 93.6452 28.3539C93.6452 27.4501 92.9126 26.7174 92.0088 26.7174C91.105 26.7174 90.3723 27.4501 90.3723 28.3539C90.3723 29.2577 91.105 29.9903 92.0088 29.9903Z" fill="url(#paint45_linear_5_51)"/>
<path d="M96.3019 17.121C96.9881 17.121 97.5444 16.5647 97.5444 15.8785C97.5444 15.1923 96.9881 14.636 96.3019 14.636C95.6157 14.636 95.0594 15.1923 95.0594 15.8785C95.0594 16.5647 95.6157 17.121 96.3019 17.121Z" fill="url(#paint46_linear_5_51)"/>
<path d="M98.0798 14.0501C98.7437 14.0501 99.2819 13.5119 99.2819 12.848C99.2819 12.1841 98.7437 11.6459 98.0798 11.6459C97.4159 11.6459 96.8777 12.1841 96.8777 12.848C96.8777 13.5119 97.4159 14.0501 98.0798 14.0501Z" fill="url(#paint47_linear_5_51)"/>
<rect x="72" y="6" width="2" height="40" fill="white"/>
<defs>
<linearGradient id="paint0_linear_5_51" x1="-1.07172e-07" y1="39.4995" x2="57" y2="39.4995" gradientUnits="userSpaceOnUse">
<stop stop-color="#00FFFF"/>
<stop offset="0.21098" stop-color="#0038FF"/>
<stop offset="0.541667" stop-color="#FF00D6"/>
<stop offset="0.737013" stop-color="#FF0000"/>
<stop offset="0.817324" stop-color="#FF8A00"/>
<stop offset="0.895626" stop-color="#FAFF00"/>
<stop offset="1" stop-color="#00FF19"/>
</linearGradient>
<linearGradient id="paint1_linear_5_51" x1="96.177" y1="10.0206" x2="138.321" y2="36.2141" gradientUnits="userSpaceOnUse">
<stop stop-color="white"/>
<stop offset="1" stop-color="white" stop-opacity="0"/>
</linearGradient>
<linearGradient id="paint2_linear_5_51" x1="106.514" y1="21.5143" x2="127.842" y2="36.9414" gradientUnits="userSpaceOnUse">
<stop stop-color="#43B6CF"/>
<stop offset="1" stop-color="#354782"/>
</linearGradient>
<linearGradient id="paint3_linear_5_51" x1="109.899" y1="18.6849" x2="126.309" y2="18.6849" gradientUnits="userSpaceOnUse">
<stop/>
<stop offset="1" stop-opacity="0"/>
</linearGradient>
<linearGradient id="paint4_linear_5_51" x1="106.514" y1="21.5143" x2="127.843" y2="36.9414" gradientUnits="userSpaceOnUse">
<stop stop-color="#43B6CF"/>
<stop offset="1" stop-color="#354782"/>
</linearGradient>
<linearGradient id="paint5_linear_5_51" x1="113.017" y1="35.1048" x2="127.843" y2="36.9414" gradientUnits="userSpaceOnUse">
<stop/>
<stop offset="1" stop-opacity="0"/>
</linearGradient>
<linearGradient id="paint6_linear_5_51" x1="106.514" y1="21.5143" x2="127.842" y2="36.9415" gradientUnits="userSpaceOnUse">
<stop stop-color="#43B6CF"/>
<stop offset="1" stop-color="#354782"/>
</linearGradient>
<linearGradient id="paint7_linear_5_51" x1="118.709" y1="35.2951" x2="127.842" y2="36.9414" gradientUnits="userSpaceOnUse">
<stop/>
<stop offset="1" stop-opacity="0"/>
</linearGradient>
<linearGradient id="paint8_linear_5_51" x1="106.514" y1="21.5143" x2="127.843" y2="36.9415" gradientUnits="userSpaceOnUse">
<stop stop-color="#43B6CF"/>
<stop offset="1" stop-color="#354782"/>
</linearGradient>
<linearGradient id="paint9_linear_5_51" x1="110.147" y1="30.7106" x2="114.098" y2="30.7106" gradientUnits="userSpaceOnUse">
<stop/>
<stop offset="1" stop-opacity="0"/>
</linearGradient>
<linearGradient id="paint10_linear_5_51" x1="106.514" y1="21.5143" x2="127.842" y2="36.9415" gradientUnits="userSpaceOnUse">
<stop stop-color="#43B6CF"/>
<stop offset="1" stop-color="#354782"/>
</linearGradient>
<linearGradient id="paint11_linear_5_51" x1="103.732" y1="38.7215" x2="113.993" y2="38.7215" gradientUnits="userSpaceOnUse">
<stop/>
<stop offset="1" stop-opacity="0"/>
</linearGradient>
<linearGradient id="paint12_linear_5_51" x1="106.514" y1="21.5143" x2="127.842" y2="36.9415" gradientUnits="userSpaceOnUse">
<stop stop-color="#43B6CF"/>
<stop offset="1" stop-color="#354782"/>
</linearGradient>
<linearGradient id="paint13_linear_5_51" x1="112.98" y1="44.8251" x2="122.313" y2="44.8251" gradientUnits="userSpaceOnUse">
<stop/>
<stop offset="1" stop-opacity="0"/>
</linearGradient>
<linearGradient id="paint14_linear_5_51" x1="96.177" y1="10.0206" x2="138.321" y2="36.2142" gradientUnits="userSpaceOnUse">
<stop stop-color="white"/>
<stop offset="1" stop-color="white" stop-opacity="0"/>
</linearGradient>
<linearGradient id="paint15_linear_5_51" x1="96.177" y1="10.0206" x2="138.321" y2="36.2142" gradientUnits="userSpaceOnUse">
<stop stop-color="white"/>
<stop offset="1" stop-color="white" stop-opacity="0"/>
</linearGradient>
<linearGradient id="paint16_linear_5_51" x1="96.177" y1="10.0206" x2="138.321" y2="36.2142" gradientUnits="userSpaceOnUse">
<stop stop-color="white"/>
<stop offset="1" stop-color="white" stop-opacity="0"/>
</linearGradient>
<linearGradient id="paint17_linear_5_51" x1="96.177" y1="10.0206" x2="138.321" y2="36.2142" gradientUnits="userSpaceOnUse">
<stop stop-color="white"/>
<stop offset="1" stop-color="white" stop-opacity="0"/>
</linearGradient>
<linearGradient id="paint18_linear_5_51" x1="96.177" y1="10.0206" x2="138.321" y2="36.2141" gradientUnits="userSpaceOnUse">
<stop stop-color="white"/>
<stop offset="1" stop-color="white" stop-opacity="0"/>
</linearGradient>
<linearGradient id="paint19_linear_5_51" x1="96.177" y1="10.0206" x2="138.321" y2="36.2142" gradientUnits="userSpaceOnUse">
<stop stop-color="white"/>
<stop offset="1" stop-color="white" stop-opacity="0"/>
</linearGradient>
<linearGradient id="paint20_linear_5_51" x1="96.177" y1="10.0206" x2="138.321" y2="36.2142" gradientUnits="userSpaceOnUse">
<stop stop-color="white"/>
<stop offset="1" stop-color="white" stop-opacity="0"/>
</linearGradient>
<linearGradient id="paint21_linear_5_51" x1="96.177" y1="10.0206" x2="138.321" y2="36.2141" gradientUnits="userSpaceOnUse">
<stop stop-color="white"/>
<stop offset="1" stop-color="white" stop-opacity="0"/>
</linearGradient>
<linearGradient id="paint22_linear_5_51" x1="96.177" y1="10.0206" x2="138.321" y2="36.2142" gradientUnits="userSpaceOnUse">
<stop stop-color="white"/>
<stop offset="1" stop-color="white" stop-opacity="0"/>
</linearGradient>
<linearGradient id="paint23_linear_5_51" x1="96.177" y1="10.0206" x2="138.321" y2="36.2142" gradientUnits="userSpaceOnUse">
<stop stop-color="white"/>
<stop offset="1" stop-color="white" stop-opacity="0"/>
</linearGradient>
<linearGradient id="paint24_linear_5_51" x1="96.177" y1="10.0206" x2="138.321" y2="36.2141" gradientUnits="userSpaceOnUse">
<stop stop-color="white"/>
<stop offset="1" stop-color="white" stop-opacity="0"/>
</linearGradient>
<linearGradient id="paint25_linear_5_51" x1="96.177" y1="10.0206" x2="138.321" y2="36.2142" gradientUnits="userSpaceOnUse">
<stop stop-color="white"/>
<stop offset="1" stop-color="white" stop-opacity="0"/>
</linearGradient>
<linearGradient id="paint26_linear_5_51" x1="96.177" y1="10.0206" x2="138.321" y2="36.2142" gradientUnits="userSpaceOnUse">
<stop stop-color="white"/>
<stop offset="1" stop-color="white" stop-opacity="0"/>
</linearGradient>
<linearGradient id="paint27_linear_5_51" x1="96.177" y1="10.0206" x2="138.321" y2="36.2141" gradientUnits="userSpaceOnUse">
<stop stop-color="white"/>
<stop offset="1" stop-color="white" stop-opacity="0"/>
</linearGradient>
<linearGradient id="paint28_linear_5_51" x1="96.177" y1="10.0206" x2="138.321" y2="36.2141" gradientUnits="userSpaceOnUse">
<stop stop-color="white"/>
<stop offset="1" stop-color="white" stop-opacity="0"/>
</linearGradient>
<linearGradient id="paint29_linear_5_51" x1="96.177" y1="10.0206" x2="138.321" y2="36.2141" gradientUnits="userSpaceOnUse">
<stop stop-color="white"/>
<stop offset="1" stop-color="white" stop-opacity="0"/>
</linearGradient>
<linearGradient id="paint30_linear_5_51" x1="96.177" y1="10.0206" x2="138.321" y2="36.2142" gradientUnits="userSpaceOnUse">
<stop stop-color="white"/>
<stop offset="1" stop-color="white" stop-opacity="0"/>
</linearGradient>
<linearGradient id="paint31_linear_5_51" x1="96.177" y1="10.0206" x2="138.321" y2="36.2142" gradientUnits="userSpaceOnUse">
<stop stop-color="white"/>
<stop offset="1" stop-color="white" stop-opacity="0"/>
</linearGradient>
<linearGradient id="paint32_linear_5_51" x1="96.177" y1="10.0206" x2="138.321" y2="36.2142" gradientUnits="userSpaceOnUse">
<stop stop-color="white"/>
<stop offset="1" stop-color="white" stop-opacity="0"/>
</linearGradient>
<linearGradient id="paint33_linear_5_51" x1="96.177" y1="10.0206" x2="138.321" y2="36.2142" gradientUnits="userSpaceOnUse">
<stop stop-color="white"/>
<stop offset="1" stop-color="white" stop-opacity="0"/>
</linearGradient>
<linearGradient id="paint34_linear_5_51" x1="96.177" y1="10.0206" x2="138.321" y2="36.2142" gradientUnits="userSpaceOnUse">
<stop stop-color="white"/>
<stop offset="1" stop-color="white" stop-opacity="0"/>
</linearGradient>
<linearGradient id="paint35_linear_5_51" x1="96.177" y1="10.0206" x2="138.321" y2="36.2142" gradientUnits="userSpaceOnUse">
<stop stop-color="white"/>
<stop offset="1" stop-color="white" stop-opacity="0"/>
</linearGradient>
<linearGradient id="paint36_linear_5_51" x1="96.177" y1="10.0206" x2="138.321" y2="36.2142" gradientUnits="userSpaceOnUse">
<stop stop-color="white"/>
<stop offset="1" stop-color="white" stop-opacity="0"/>
</linearGradient>
<linearGradient id="paint37_linear_5_51" x1="96.177" y1="10.0206" x2="138.321" y2="36.2142" gradientUnits="userSpaceOnUse">
<stop stop-color="white"/>
<stop offset="1" stop-color="white" stop-opacity="0"/>
</linearGradient>
<linearGradient id="paint38_linear_5_51" x1="96.177" y1="10.0206" x2="138.321" y2="36.2142" gradientUnits="userSpaceOnUse">
<stop stop-color="white"/>
<stop offset="1" stop-color="white" stop-opacity="0"/>
</linearGradient>
<linearGradient id="paint39_linear_5_51" x1="96.177" y1="10.0206" x2="138.321" y2="36.2142" gradientUnits="userSpaceOnUse">
<stop stop-color="white"/>
<stop offset="1" stop-color="white" stop-opacity="0"/>
</linearGradient>
<linearGradient id="paint40_linear_5_51" x1="96.1769" y1="10.0206" x2="138.321" y2="36.2142" gradientUnits="userSpaceOnUse">
<stop stop-color="white"/>
<stop offset="1" stop-color="white" stop-opacity="0"/>
</linearGradient>
<linearGradient id="paint41_linear_5_51" x1="96.177" y1="10.0206" x2="138.321" y2="36.2142" gradientUnits="userSpaceOnUse">
<stop stop-color="white"/>
<stop offset="1" stop-color="white" stop-opacity="0"/>
</linearGradient>
<linearGradient id="paint42_linear_5_51" x1="96.177" y1="10.0206" x2="138.321" y2="36.2142" gradientUnits="userSpaceOnUse">
<stop stop-color="white"/>
<stop offset="1" stop-color="white" stop-opacity="0"/>
</linearGradient>
<linearGradient id="paint43_linear_5_51" x1="96.177" y1="10.0206" x2="138.321" y2="36.2142" gradientUnits="userSpaceOnUse">
<stop stop-color="white"/>
<stop offset="1" stop-color="white" stop-opacity="0"/>
</linearGradient>
<linearGradient id="paint44_linear_5_51" x1="96.177" y1="10.0206" x2="138.321" y2="36.2141" gradientUnits="userSpaceOnUse">
<stop stop-color="white"/>
<stop offset="1" stop-color="white" stop-opacity="0"/>
</linearGradient>
<linearGradient id="paint45_linear_5_51" x1="96.177" y1="10.0206" x2="138.321" y2="36.2142" gradientUnits="userSpaceOnUse">
<stop stop-color="white"/>
<stop offset="1" stop-color="white" stop-opacity="0"/>
</linearGradient>
<linearGradient id="paint46_linear_5_51" x1="96.177" y1="10.0206" x2="138.321" y2="36.2142" gradientUnits="userSpaceOnUse">
<stop stop-color="white"/>
<stop offset="1" stop-color="white" stop-opacity="0"/>
</linearGradient>
<linearGradient id="paint47_linear_5_51" x1="96.177" y1="10.0206" x2="138.321" y2="36.2142" gradientUnits="userSpaceOnUse">
<stop stop-color="white"/>
<stop offset="1" stop-color="white" stop-opacity="0"/>
</linearGradient>
</defs>
</svg>
